<svg width="50" height="50" viewBox="0 0 50 50" fill="none" xmlns="http://www.w3.org/2000/svg">
<path fill-rule="evenodd" clip-rule="evenodd" d="M45.8333 24.9998C45.8333 36.5058 36.5059 45.8332 25 45.8332C13.494 45.8332 4.16663 36.5058 4.16663 24.9998C4.16663 13.4939 13.494 4.1665 25 4.1665C36.5059 4.1665 45.8333 13.4939 45.8333 24.9998ZM37.5 32.4403C37.5 35.8921 31.9035 39.5832 25 39.5832C18.0964 39.5832 12.5 35.8921 12.5 32.4403C12.5 28.9885 18.0964 27.0832 25 27.0832C31.9035 27.0832 37.5 28.9885 37.5 32.4403ZM25 22.9165C28.4517 22.9165 31.25 20.1183 31.25 16.6665C31.25 13.2147 28.4517 10.4165 25 10.4165C21.5482 10.4165 18.75 13.2147 18.75 16.6665C18.75 20.1183 21.5482 22.9165 25 22.9165Z" fill="#D9D9D9"/>
</svg>
