<svg width="19.500000" height="19.500000" viewBox="0 0 19.5 19.5" fill="none" xmlns="http://www.w3.org/2000/svg" xmlns:xlink="http://www.w3.org/1999/xlink">
	<desc>
			Created with Pixso.
	</desc>
	<defs/>
	<path id="Icon" d="M9.21 1.11C9.37 0.45 9.44 0.12 9.57 0.04C9.68 -0.02 9.81 -0.02 9.92 0.04C10.05 0.12 10.12 0.45 10.28 1.11L11.04 4.35C11.33 5.55 11.47 6.15 11.78 6.64C12.05 7.07 12.42 7.44 12.85 7.71C13.34 8.02 13.94 8.16 15.14 8.45L18.38 9.21C19.04 9.37 19.37 9.44 19.45 9.57C19.51 9.68 19.51 9.81 19.45 9.92C19.37 10.05 19.04 10.12 18.38 10.28L15.14 11.04C13.94 11.33 13.34 11.47 12.85 11.78C12.42 12.05 12.05 12.42 11.78 12.85C11.47 13.34 11.33 13.94 11.04 15.14L10.28 18.38C10.12 19.04 10.05 19.37 9.92 19.45C9.81 19.51 9.68 19.51 9.57 19.45C9.44 19.37 9.37 19.04 9.21 18.38L8.45 15.14C8.16 13.94 8.02 13.34 7.71 12.85C7.44 12.42 7.07 12.05 6.64 11.78C6.15 11.47 5.55 11.33 4.35 11.04L1.11 10.28C0.45 10.12 0.12 10.05 0.04 9.92C-0.02 9.81 -0.02 9.68 0.04 9.57C0.12 9.44 0.45 9.37 1.11 9.21L4.35 8.45C5.55 8.16 6.15 8.02 6.64 7.71C7.07 7.44 7.44 7.07 7.71 6.64C8.02 6.15 8.16 5.55 8.45 4.35L9.21 1.11Z" fill="#000000" fill-opacity="1.000000" fill-rule="nonzero"/>
</svg>
